<svg class="{{ class_name|default('icon icon-filter') }}" viewBox="0 0 18 18">
    <path fill-rule="evenodd" clip-rule="evenodd" d="M5.22595 5.34783C6.33583 5.51193 7.96158 5.67771 9.99989 5.67771C12.0382 5.67771 13.6639 5.51193 14.7738 5.34783C15.3287 5.26578 15.7544 5.1842 16.0379 5.12405C16.1796 5.09398 16.2858 5.06927 16.3548 5.05256C16.3893 5.0442 16.4145 5.03785 16.4302 5.03382L16.4466 5.02956L16.4488 5.02896C16.4487 5.029 16.4485 5.02904 16.6666 5.83335C16.8846 6.63765 16.8844 6.6377 16.8842 6.63775L16.8838 6.63786L16.8828 6.63814L16.8801 6.63886L16.872 6.64102L16.8447 6.6481C16.8218 6.654 16.7892 6.6622 16.7472 6.67238C16.6632 6.69273 16.5415 6.72097 16.3838 6.75443C16.0683 6.82135 15.6086 6.90919 15.0176 6.99657C13.8358 7.1713 12.1282 7.34438 9.99989 7.34438C7.87153 7.34438 6.16394 7.1713 4.98216 6.99657C4.3912 6.90919 3.93145 6.82135 3.61601 6.75443C3.45828 6.72097 3.33659 6.69273 3.25259 6.67238C3.21058 6.6622 3.178 6.654 3.15503 6.6481L3.12782 6.64102L3.11967 6.63886L3.11697 6.63814L3.11597 6.63786L3.11555 6.63775C3.11537 6.6377 3.11519 6.63765 3.33322 5.83335C3.55125 5.02904 3.55109 5.029 3.55095 5.02896L3.5507 5.02889L3.55042 5.02882L3.55322 5.02956L3.5696 5.03382C3.58529 5.03785 3.61048 5.0442 3.64497 5.05256C3.71396 5.06927 3.82014 5.09398 3.96189 5.12405C4.24541 5.1842 4.67108 5.26578 5.22595 5.34783ZM3.55038 5.02881L3.55042 5.02882L3.55038 5.02881ZM6.42996 9.4092C7.25151 9.52192 8.46354 9.63625 9.99989 9.63625C11.5362 9.63625 12.7483 9.52192 13.5698 9.4092C13.9805 9.35284 14.2935 9.29692 14.5004 9.25593C14.6039 9.23544 14.6808 9.21869 14.7301 9.2075C14.7548 9.20191 14.7726 9.1977 14.7833 9.19511L14.7941 9.19247L14.7946 9.19236C14.7945 9.19239 14.7943 9.19243 14.9999 10C15.2054 10.8076 15.2053 10.8076 15.2051 10.8077L15.2047 10.8078L15.2038 10.808L15.2015 10.8086L15.1949 10.8103L15.1735 10.8155C15.1557 10.8198 15.1307 10.8256 15.0988 10.8329C15.0349 10.8474 14.9431 10.8673 14.8243 10.8908C14.5867 10.9379 14.2412 10.9994 13.7964 11.0604C12.9067 11.1825 11.6187 11.3029 9.99989 11.3029C8.38103 11.3029 7.09306 11.1825 6.20341 11.0604C5.75854 10.9994 5.41311 10.9379 5.17552 10.8908C5.05672 10.8673 4.96485 10.8474 4.90098 10.8329C4.86904 10.8256 4.8441 10.8198 4.82628 10.8155L4.80491 10.8103L4.79827 10.8086L4.79596 10.808L4.79506 10.8078L4.79467 10.8077C4.7945 10.8076 4.79433 10.8076 4.99989 10C5.20544 9.19243 5.20529 9.19239 5.20514 9.19236L5.20488 9.19229L5.20564 9.19247L5.21647 9.19511C5.22721 9.1977 5.24499 9.20191 5.26965 9.2075C5.31899 9.21869 5.3959 9.23544 5.49935 9.25593C5.70626 9.29692 6.01923 9.35284 6.42996 9.4092ZM7.64628 13.4692C8.19116 13.5313 8.99286 13.5944 9.99989 13.5944C11.0069 13.5944 11.8086 13.5313 12.3535 13.4692C12.6259 13.4382 12.8338 13.4075 12.971 13.385C13.0395 13.3738 13.0903 13.3647 13.1226 13.3587L13.1569 13.3521L13.1631 13.3509C13.163 13.3509 13.1629 13.3509 13.3332 14.1667C13.5036 14.9824 13.5034 14.9824 13.5033 14.9825L13.503 14.9825L13.5023 14.9827L13.5005 14.9831L13.4956 14.9841L13.4804 14.9871C13.4678 14.9896 13.4504 14.993 13.4283 14.9971C13.3841 15.0053 13.321 15.0166 13.2398 15.0299C13.0774 15.0564 12.8427 15.0909 12.5421 15.1252C11.9412 15.1936 11.0762 15.261 9.99989 15.261C8.92358 15.261 8.05862 15.1936 7.45766 15.1252C7.15712 15.0909 6.92238 15.0564 6.76001 15.0299C6.67882 15.0166 6.6157 15.0053 6.57147 14.9971C6.54935 14.993 6.53195 14.9896 6.51938 14.9871L6.50414 14.9841L6.49926 14.9831L6.4975 14.9827L6.4968 14.9825L6.49649 14.9825C6.49635 14.9824 6.49621 14.9824 6.66655 14.1667C6.8369 13.3509 6.83677 13.3509 6.83665 13.3509L6.84283 13.3521L6.8772 13.3587C6.90947 13.3647 6.96028 13.3738 7.02882 13.385C7.16594 13.4075 7.37391 13.4382 7.64628 13.4692Z" fill="currentColor" />
</svg>