<svg class="{{ class_name|default('icon') }}" viewBox="0 0 24 24">
    <path fill-rule="evenodd" fill="currentColor" d="M13.8957 5.81147C15.2583 5.50867 16.1955 5.30204 16.9167 5.22756C17.6226 5.15465 17.9672 5.22846 18.2039 5.35689C18.4142 5.47098 18.6023 5.62187 18.7593 5.80239C18.936 6.0056 19.0828 6.32599 19.1648 7.03101C19.2486 7.75124 19.2501 8.71099 19.2501 10.1069V10.118V10.1291V10.1402V10.1513V10.1623V10.1734V10.1845V10.1956V10.2067V10.2177V10.2288V10.2399V10.251V10.262V10.2731V10.2842V10.2953V10.3063V10.3174V10.3285V10.3395V10.3506V10.3616V10.3727V10.3837V10.3948V10.4059V10.4169V10.428V10.439V10.4501V10.4611V10.4721V10.4832V10.4942V10.5053V10.5163V10.5273V10.5384V10.5494V10.5604V10.5714V10.5825V10.5935V10.6045V10.6155V10.6265V10.6375V10.6485V10.6595V10.6706V10.6816V10.6926V10.7036V10.7145V10.7255V10.7365V10.7475V10.7585V10.7695V10.7805V10.7914V10.8024V10.8134V10.8243V10.8353V10.8463V10.8572V10.8682V10.8791V10.8901V10.901V10.912V10.9229V10.9339V10.9448V10.9557V10.9666V10.9776V10.9885V10.9994V11.0103V11.0212V11.0321V11.0431V11.054V11.0649V11.0757V11.0866V11.0975V11.1084V11.1193V11.1302V11.141V11.1519V11.1628V11.1736V11.1845V11.1954V11.2062V11.217V11.2279V11.2387V11.2496V11.2604V11.2712V11.282V11.2929V11.3037V11.3145V11.3253V11.3361V11.3469V11.3577V11.3685V11.3793V11.39V11.4008V11.4116V11.4224V11.4331V11.4439V11.4546V11.4654V11.4761V11.4869V11.4976V11.5083V11.5191V11.5298V11.5405V11.5512V11.5619V11.5726V11.5833V11.594V11.6047V11.6154V11.626V11.6367V11.6474V11.6581V11.6687V11.6794V11.69V11.7006V11.7113V11.7219V11.7325V11.7432V11.7538V11.7644V11.775V11.7856V11.7962V11.8068V11.8173V11.8279V11.8385V11.8491V11.8596V11.8702V11.8807V11.8913V11.9018V11.9123V11.9229V11.9326C18.6672 11.5793 17.9867 11.375 17.2502 11.375C14.9848 11.375 13.2502 13.3078 13.2502 15.5625C13.2502 17.8172 14.9848 19.75 17.2502 19.75C19.5155 19.75 21.2501 17.8172 21.2501 15.5625C21.2501 15.3724 21.2378 15.1845 21.2139 15H21.2501V14.9932V14.9865V14.9797V14.9729V14.9661V14.9593V14.9525V14.9456V14.9388V14.9319V14.925V14.9181V14.9112V14.9042V14.8973V14.8903V14.8833V14.8763V14.8693V14.8622V14.8552V14.8481V14.8411V14.834V14.8268V14.8197V14.8126V14.8054V14.7982V14.791V14.7838V14.7766V14.7694V14.7621V14.7549V14.7476V14.7403V14.733V14.7257V14.7183V14.711V14.7036V14.6962V14.6888V14.6814V14.674V14.6665V14.6591V14.6516V14.6441V14.6366V14.6291V14.6215V14.614V14.6064V14.5989V14.5913V14.5837V14.576V14.5684V14.5608V14.5531V14.5454V14.5377V14.53V14.5223V14.5146V14.5068V14.4991V14.4913V14.4835V14.4757V14.4679V14.46V14.4522V14.4443V14.4365V14.4286V14.4207V14.4128V14.4048V14.3969V14.3889V14.381V14.373V14.365V14.357V14.349V14.3409V14.3329V14.3248V14.3167V14.3086V14.3005V14.2924V14.2843V14.2761V14.268V14.2598V14.2516V14.2434V14.2352V14.227V14.2188V14.2105V14.2022V14.194V14.1857V14.1774V14.1691V14.1607V14.1524V14.144V14.1357V14.1273V14.1189V14.1105V14.1021V14.0937V14.0852V14.0768V14.0683V14.0598V14.0513V14.0428V14.0343V14.0258V14.0172V14.0087V14.0001V13.9915V13.9829V13.9743V13.9657V13.9571V13.9485V13.9398V13.9311V13.9225V13.9138V13.9051V13.8964V13.8876V13.8789V13.8702V13.8614V13.8526V13.8438V13.8351V13.8262V13.8174V13.8086V13.7998V13.7909V13.782V13.7732V13.7643V13.7554V13.7465V13.7376V13.7286V13.7197V13.7107V13.7018V13.6928V13.6838V13.6748V13.6658V13.6568V13.6477V13.6387V13.6296V13.6206V13.6115V13.6024V13.5933V13.5842V13.5751V13.5659V13.5568V13.5476V13.5385V13.5293V13.5201V13.5109V13.5017V13.4925V13.4833V13.474V13.4648V13.4555V13.4462V13.437V13.4277V13.4184V13.409V13.3997V13.3904V13.3811V13.3717V13.3623V13.353V13.3436V13.3342V13.3248V13.3154V13.3059V13.2965V13.2871V13.2776V13.2682V13.2587V13.2492V13.2397V13.2302V13.2207V13.2112V13.2016V13.1921V13.1825V13.173V13.1634V13.1538V13.1442V13.1346V13.125V13.1154V13.1058V13.0962V13.0865V13.0769V13.0672V13.0575V13.0478V13.0381V13.0284V13.0187V13.009V12.9993V12.9896V12.9798V12.97V12.9603V12.9505V12.9407V12.9309V12.9211V12.9113V12.9015V12.8917V12.8819V12.872V12.8622V12.8523V12.8424V12.8326V12.8227V12.8128V12.8029V12.793V12.783V12.7731V12.7632V12.7532V12.7433V12.7333V12.7234V12.7134V12.7034V12.6934V12.6834V12.6734V12.6634V12.6533V12.6433V12.6333V12.6232V12.6132V12.6031V12.593V12.5829V12.5728V12.5627V12.5526V12.5425V12.5324V12.5223V12.5121V12.502V12.4919V12.4817V12.4715V12.4614V12.4512V12.441V12.4308V12.4206V12.4104V12.4002V12.3899V12.3797V12.3695V12.3592V12.349V12.3387V12.3284V12.3182V12.3079V12.2976V12.2873V12.277V12.2667V12.2564V12.2461V12.2357V12.2254V12.2151V12.2047V12.1944V12.184V12.1736V12.1632V12.1529V12.1425V12.1321V12.1217V12.1113V12.1009V12.0904V12.08V12.0696V12.0591V12.0487V12.0382V12.0278V12.0173V12.0068V11.9964V11.9859V11.9754V11.9649V11.9544V11.9439V11.9334V11.9229V11.9123V11.9018V11.8913V11.8807V11.8702V11.8596V11.8491V11.8385V11.8279V11.8173V11.8068V11.7962V11.7856V11.775V11.7644V11.7538V11.7432V11.7325V11.7219V11.7113V11.7006V11.69V11.6794V11.6687V11.6581V11.6474V11.6367V11.626V11.6154V11.6047V11.594V11.5833V11.5726V11.5619V11.5512V11.5405V11.5298V11.5191V11.5083V11.4976V11.4869V11.4761V11.4654V11.4546V11.4439V11.4331V11.4224V11.4116V11.4008V11.39V11.3793V11.3685V11.3577V11.3469V11.3361V11.3253V11.3145V11.3037V11.2929V11.282V11.2712V11.2604V11.2496V11.2387V11.2279V11.217V11.2062V11.1954V11.1845V11.1736V11.1628V11.1519V11.141V11.1302V11.1193V11.1084V11.0975V11.0866V11.0757V11.0649V11.054V11.0431V11.0321V11.0212V11.0103V10.9994V10.9885V10.9776V10.9666V10.9557V10.9448V10.9339V10.9229V10.912V10.901V10.8901V10.8791V10.8682V10.8572V10.8463V10.8353V10.8243V10.8134V10.8024V10.7914V10.7805V10.7695V10.7585V10.7475V10.7365V10.7255V10.7145V10.7036V10.6926V10.6816V10.6706V10.6595V10.6485V10.6375V10.6265V10.6155V10.6045V10.5935V10.5825V10.5714V10.5604V10.5494V10.5384V10.5273V10.5163V10.5053V10.4942V10.4832V10.4721V10.4611V10.4501V10.439V10.428V10.4169V10.4059V10.3948V10.3837V10.3727V10.3616V10.3506V10.3395V10.3285V10.3174V10.3063V10.2953V10.2842V10.2731V10.262V10.251V10.2399V10.2288V10.2177V10.2067V10.1956V10.1845V10.1734V10.1623V10.1513V10.1402V10.1291V10.118V10.1069V10.0446C21.2502 8.72621 21.2502 7.64946 21.1514 6.80002C21.0493 5.92201 20.828 5.1334 20.2685 4.48997C19.9545 4.12893 19.5783 3.82715 19.1577 3.59897C18.4082 3.19233 17.5904 3.14734 16.7112 3.23814C15.8606 3.32598 14.8095 3.55957 13.5226 3.84558L13.4618 3.8591L9.90822 4.64878L9.12515 4.82279V5.62497V13.0576C8.54218 12.7043 7.86172 12.5 7.12515 12.5C4.85976 12.5 3.12515 14.4328 3.12515 16.6875C3.12515 18.9422 4.85976 20.875 7.12515 20.875C9.32748 20.875 11.0282 19.0483 11.1211 16.875H11.1252V16.6875V6.42714L13.8957 5.81147ZM9.12515 16.6875C9.12515 15.4214 8.17347 14.5 7.12515 14.5C6.07683 14.5 5.12515 15.4214 5.12515 16.6875C5.12515 17.9536 6.07683 18.875 7.12515 18.875C8.17347 18.875 9.12515 17.9536 9.12515 16.6875ZM17.2502 13.375C16.2018 13.375 15.2502 14.2964 15.2502 15.5625C15.2502 16.8286 16.2018 17.75 17.2502 17.75C18.2985 17.75 19.2501 16.8286 19.2501 15.5625C19.2501 14.2964 18.2985 13.375 17.2502 13.375Z" />
</svg>