<svg class="{{ class_name|default('icon icon-tracks') }}" viewBox="0 0 24 24">
    <path fill-rule="evenodd" clip-rule="evenodd" d="M12 4C7.58172 4 4 7.58172 4 12C4 16.4183 7.58172 20 12 20C16.4183 20 20 16.4183 20 12C20 7.58172 16.4183 4 12 4ZM2 12C2 6.47715 6.47715 2 12 2C17.5228 2 22 6.47715 22 12C22 17.5228 17.5228 22 12 22C6.47715 22 2 17.5228 2 12ZM16 12C16 9.79086 14.2091 8 12 8V6C15.3137 6 18 8.68629 18 12H16ZM8 12C8 14.2091 9.79086 16 12 16V18C8.68629 18 6 15.3137 6 12H8ZM12 14C13.1046 14 14 13.1046 14 12C14 10.8954 13.1046 10 12 10C10.8954 10 10 10.8954 10 12C10 13.1046 10.8954 14 12 14Z" fill="currentColor" />
</svg>
