<svg class="{{ class_name|default('icon icon-users') }}" viewBox="0 0 18 18">
    <path fill-rule="evenodd" d="M6.53013 5.875C6.53013 4.7014 7.48152 3.75 8.65513 3.75C9.82873 3.75 10.7801 4.7014 10.7801 5.875C10.7801 7.0486 9.82873 8 8.65513 8C7.48152 8 6.53013 7.0486 6.53013 5.875ZM8.65513 2C6.51502 2 4.78013 3.7349 4.78013 5.875C4.78013 8.0151 6.51502 9.75 8.65513 9.75C10.7952 9.75 12.5301 8.0151 12.5301 5.875C12.5301 3.7349 10.7952 2 8.65513 2ZM8.65513 11.5C6.56159 11.5 4.90559 12.1913 3.77858 12.8777C3.21501 13.2209 2.77956 13.5653 2.4816 13.8275C2.33238 13.9588 2.21689 14.0701 2.13632 14.1513C2.09601 14.1919 2.06436 14.2251 2.04153 14.2495C2.03011 14.2618 2.02088 14.2718 2.01388 14.2795L2.00502 14.2893L2.00185 14.2929L2.00057 14.2943L2.00001 14.295C1.99975 14.2953 1.9995 14.2955 2.65513 14.875C3.31075 15.4545 3.31052 15.4547 3.3103 15.455L3.30989 15.4554L3.30929 15.4561L3.30922 15.4562L3.30846 15.457C3.30822 15.4573 3.3085 15.457 3.30929 15.4561L3.32021 15.4443C3.33159 15.4321 3.35112 15.4116 3.37863 15.3838C3.4337 15.3283 3.52045 15.2444 3.6376 15.1413C3.87239 14.9347 4.22624 14.6541 4.68887 14.3723C5.61425 13.8087 6.95825 13.25 8.65513 13.25C10.352 13.25 11.696 13.8087 12.6214 14.3723C13.084 14.6541 13.4379 14.9347 13.6727 15.1413C13.7898 15.2444 13.8766 15.3283 13.9316 15.3838C13.9591 15.4116 13.9787 15.4321 13.99 15.4443L14.001 15.4561L14.0004 15.4554L14 15.455C13.9997 15.4547 13.9995 15.4545 14.6551 14.875C15.3108 14.2955 15.3105 14.2953 15.3102 14.295L15.3097 14.2943L15.3084 14.2929L15.3052 14.2893L15.2964 14.2795C15.2894 14.2718 15.2801 14.2618 15.2687 14.2495C15.2459 14.2251 15.2142 14.1919 15.1739 14.1513C15.0934 14.0701 14.9779 13.9588 14.8287 13.8275C14.5307 13.5653 14.0952 13.2209 13.5317 12.8777C12.4047 12.1913 10.7487 11.5 8.65513 11.5Z" fill="currentColor" />
</svg>